<mxfile host="app.diagrams.net" modified="2024-04-30T11:57:17.324Z" agent="Mozilla/5.0 (Windows NT 10.0; Win64; x64) AppleWebKit/537.36 (KHTML, like Gecko) Chrome/124.0.0.0 Safari/537.36" version="24.3.1" etag="OGv77Nw-lZ7N6a9Vf1hn" type="github">
  <diagram name="Страница — 1" id="WKYaNMYt4wUaJBxj0Opv">
    <mxGraphModel>
      <root>
        <mxCell id="0" />
        <mxCell id="1" parent="0" />
      </root>
    </mxGraphModel>
  </diagram>
</mxfile>
